<?xml version="1.0" encoding="UTF-8" standalone="no"?>
<!-- Generator: Adobe Illustrator 25.3.0, SVG Export Plug-In . SVG Version: 6.00 Build 0)  -->

<svg
   version="1.1"
   id="Capa_1"
   x="0px"
   y="0px"
   viewBox="0 0 147.1 85.8"
   style="enable-background:new 0 0 147.1 85.8;"
   xml:space="preserve"
   sodipodi:docname="flossconferenceday-linuxcabal.svg"
   inkscape:version="1.3.1 (9b9bdc1480, 2023-11-25, custom)"
   inkscape:export-filename="logo flisol y cabal no sticker.png"
   inkscape:export-xdpi="96"
   inkscape:export-ydpi="96"
   xmlns:inkscape="http://www.inkscape.org/namespaces/inkscape"
   xmlns:sodipodi="http://sodipodi.sourceforge.net/DTD/sodipodi-0.dtd"
   xmlns="http://www.w3.org/2000/svg"
   xmlns:svg="http://www.w3.org/2000/svg"><defs
   id="defs9">
	
	
	
	

		
		
		
		
		
	</defs><sodipodi:namedview
   id="namedview9"
   pagecolor="#ffffff"
   bordercolor="#000000"
   borderopacity="0.25"
   inkscape:showpageshadow="2"
   inkscape:pageopacity="0.0"
   inkscape:pagecheckerboard="0"
   inkscape:deskcolor="#d1d1d1"
   inkscape:zoom="5.5354594"
   inkscape:cx="131.0641"
   inkscape:cy="-20.413843"
   inkscape:window-width="3440"
   inkscape:window-height="1375"
   inkscape:window-x="0"
   inkscape:window-y="0"
   inkscape:window-maximized="1"
   inkscape:current-layer="Capa_1" />
<style
   type="text/css"
   id="style1">
	.st0{fill:#FFFFFF;stroke:#111110;stroke-width:0.5;stroke-linecap:round;stroke-linejoin:round;stroke-miterlimit:10;}
	.st1{fill:#010202;}
	.st2{fill:none;stroke:#FFFFFF;stroke-width:4;stroke-linecap:round;stroke-linejoin:round;stroke-miterlimit:10;}
	.st3{fill:#F28C33;stroke:#FFFFFF;stroke-width:4;stroke-miterlimit:10;}
	.st4{fill:#F28C33;stroke:#FFFFFF;stroke-width:4;stroke-miterlimit:1.8104;}
	.st5{fill:#FFFFFF;stroke:#FFFFFF;stroke-width:4;stroke-miterlimit:1.8104;}
	.st6{fill:none;stroke:#F28C33;stroke-width:3.3711;stroke-linecap:round;stroke-linejoin:round;stroke-miterlimit:10;}
	.st7{fill:#F28C33;}
	.st8{fill:#F28C33;stroke:#F28C33;stroke-width:1.2642;stroke-miterlimit:1.8104;}
	.st9{fill:#FFFFFF;stroke:#FFFFFF;stroke-width:0.2107;stroke-miterlimit:1.8104;}
</style>




<g
   id="layer1"
   transform="translate(-208.45816,-46.982113)">
	<g
   id="g58"
   transform="matrix(1.8316198,0,0,1.8316198,157.99646,19.558633)">
		<path
   class="st1"
   d="M77.9,29.7H36.6c-0.2-0.8-0.6-1.2-1.5-1.3v-3.9c0-0.5,0.2-0.6,0.7-0.6h27.6c0.1,1,0.8,1.5,1.7,1.7v1.3H50.9    c-0.1-0.7-0.6-1.5-1.3-1.5h-1.1c-0.6,0-1.5,1.1-1.5,1.7c0,0.9,0.9,1.4,1.5,1.7h1.1c0.9-0.5,1-0.4,1.3-1.5h14.6    c0.1-0.5,0.2-0.5,0.2-1.1v-0.6c1.1-0.2,0.9-0.3,1.3-1.1v-1.1c-0.4-0.7-0.5-0.7-0.9-1.3c-0.9-0.1-0.5-0.2-1.1-0.2    c-0.5,0-0.3,0.1-1.1,0.2c-0.3,0.5-0.5,0.6-0.7,1.3H35.3c-0.8,0-0.6,0.5-0.9,1.1v3.9c-1,0.5-0.8,0.3-1.3,1.3v1.1    c0,0.5,0.5,0.8,0.9,1.2l0.8,0.2l0.8-0.2l0.9-0.8v-0.9h41C77.7,30.1,77.8,29.9,77.9,29.7z M49.2,28.1h-0.4    c-0.5-0.2-1.1-0.4-1.1-1.1v-0.2c0-0.5,0.4-0.9,0.9-0.9h0.9c0.5,0,1.1,0.6,1.1,1.1C50.5,27.7,49.7,28.1,49.2,28.1z M64,22.8    l0.6-0.2l0.4,0c0.9,0,1.5,0.8,1.5,1.7c0,0.3-0.4,0.6-0.9,0.6h-0.7c-0.6-0.3-1.3-0.6-1.3-1.5C63.8,23.4,63.9,23,64,22.8z     M35.9,30.5c0,0.5-0.6,1.1-1.1,1.1h-0.2l-0.4,0l-0.5-0.8l0-0.4v-0.4c0.2-0.5,0.4-1.1,1.1-1.1h0.2l0.4,0l0.4,0.9V30.5z"
   id="path6" />
		<path
   class="st1"
   d="M101,28.1v-3.7c0-0.6-0.1-0.6-0.2-1.1H72.9c-0.3-1.4-0.6-1-1.7-1.5c-1.4,0.6-1.2,0.1-2,1.5v0.9    c0,0.7,0.2,0.2,0.4,1l0.9,0.2v0.6c0,0.6,0.1,0.6,0.2,1.1h12.4c0-0.1,0.1-0.3,0.1-0.4h-12v-1.3c1.2-0.1,1.6-0.6,1.7-1.7h27.4    c0.1,0.5,0.2,0.5,0.2,1.1v3.2c-1.1,0.1-1.4,0.4-1.5,1.5h-5.1c0.1,0.2,0.2,0.4,0.2,0.6H99c0.3,1.1,0.4,1.1,1.3,1.5h1.1    c1.1-0.6,0.7-0.4,1.3-1.5C102.4,29.2,102.2,28.3,101,28.1z M72,24.7l-1.3,0.4c-0.5-0.2-1.1-0.4-1.1-1.1h0c0-0.6,1.1-1.5,1.7-1.5    c0.5,0,0.3,0.1,0.9,0.2c0.1,0.6,0.2,0.4,0.2,0.9C72.5,23.6,72.1,24.4,72,24.7z M101.8,30.9c-0.4,0.3-0.4,0.4-0.8,0.4    c-0.5,0-1.3-0.8-1.3-1.3v-0.6c0-0.5,0.4-0.9,0.9-0.9h0.2c0.5,0,0.6,0.3,1,0.7l0.1,1L101.8,30.9z"
   id="path7" />
		<path
   class="st1"
   d="M101,46.2h-0.9c-0.5,0-0.8,0.5-1.3,0.9v0.9h-4.9c-0.1,0.2-0.1,0.4-0.2,0.6h5.1c0.2,0.8,0.6,1.2,1.5,1.3v3.9    c0,0.5-0.2,0.6-0.7,0.6H72c-0.1-1.1-0.2-0.3-0.4-1.3l-1.3-0.5l0-1c0.5-0.1,0.5-0.2,1.1-0.2h11.9c-0.1-0.1-0.1-0.3-0.2-0.4H69.9    c-0.1,0.5-0.2,0.5-0.2,1.1v0.6c-1.1,0.2-0.9,0.3-1.3,1.1v1.1c0.7,1.2,0.5,0.9,1.7,1.5h0.4c0.9,0,1.3-0.7,1.5-1.5h28.1    c0.8,0,0.6-0.5,0.9-1.1v-3.9c1-0.5,0.8-0.3,1.3-1.3v-1.1C102.3,47,101.5,46.2,101,46.2z M71.4,55.5c-0.6,0.1-0.4,0.2-0.9,0.2h-0.4    c-0.6-0.3-1.3-0.6-1.3-1.5c0-0.5,0.4-0.9,0.9-0.9h0.7c0.4,0.2,1.3,0.7,1.3,1.3C71.6,55.1,71.5,54.8,71.4,55.5z M101.6,48.4    c-0.2,0.5-0.4,1.1-1.1,1.1c-0.5,0-0.3-0.1-0.9-0.2l-0.2-0.6l0-0.4v-0.4c0-0.5,0.6-1.1,1.1-1.1h0.2c0.5,0,0.9,0.4,0.9,0.9V48.4z"
   id="path8" />
		<path
   class="st1"
   d="M64.9,52.7V52c0-0.6-0.1-0.6-0.2-1.1H50.3c-0.3-1.1-0.4-1.1-1.3-1.5h-1.3c-0.6,0.3-1.3,0.8-1.3,1.7    c0,0.9,0.9,1.4,1.5,1.7H49c0.9-0.5,1-0.4,1.3-1.5h13.9v1.3c-1.2,0.1-1.6,0.6-1.7,1.7H35.1c-0.1-0.5-0.2-0.5-0.2-1.1v-3.2    c1.1-0.1,1.4-0.4,1.5-1.5h42.1c-0.1-0.2-0.3-0.4-0.4-0.6H36.4c-0.3-1.1-0.4-1.1-1.3-1.5h-0.9c-0.7,0-0.2,0.2-1.1,0.4l-0.4,1.3    c0.5,1.1,0.3,1.6,1.7,1.9v3.7c0,0.6,0.1,0.6,0.2,1.1h27.8c0.3,1.2,0.6,1,1.5,1.5c1.4-0.3,1.6-0.4,2.2-1.5v-1.1    C65.7,52.9,65.9,52.9,64.9,52.7z M49.6,52L49,52.2h-0.9c-0.5,0-1.1-0.6-1.1-1.1v-0.2c0-0.5,0.4-0.9,0.9-0.9h0.9    c0.4,0.2,1.1,0.5,1.1,1.1C49.8,51.7,49.8,51.4,49.6,52z M33.5,48.6v-0.9c0-0.5,0.4-0.9,0.9-0.9c0.8,0,1,0.5,1.3,1.1v0.9    c0,0.5-0.4,0.9-0.9,0.9h-0.2C34.1,49.7,33.5,49.1,33.5,48.6z M65.3,55.2c-0.6,0.1-0.9,0.4-1.3,0.4c-0.5,0-0.3-0.1-0.9-0.2    c-0.1-0.3-0.2-0.6-0.2-0.6c0-0.6,0.6-1.1,0.9-1.5l0.9-0.3c0.5,0.2,1.1,0.4,1.1,1.1C65.7,54.9,65.3,54.5,65.3,55.2z"
   id="path9" />
	</g>
</g>

<path
   id="path7204_1_"
   class="st9"
   d="m 100.95128,34.669169 c -0.16973,0 -0.33946,0.05658 -0.45261,0.169726 -0.0566,0.62233 0.16973,1.414387 0.62233,1.810416 -0.0566,-0.05658 -0.11315,-0.169727 -0.16972,-0.282878 -0.22631,-0.339453 -0.56576,-1.923566 0.11315,-1.131509 0.39602,0.905207 0.56575,1.980141 1.18808,2.715623 0.50918,0.792056 1.41439,0.848632 2.20645,1.074934 0.6789,0.339453 0.9052,1.301236 1.64068,1.527538 0.50918,0.678905 -0.11315,1.527538 -0.39602,2.206443 -0.56576,1.018359 0.62233,1.640689 0.96178,2.432746 0.73548,1.074934 1.47096,2.432745 0.90521,3.733981 -0.33946,0.961784 -0.39603,2.036718 -0.67891,2.998501 -0.11315,0.678906 -0.28288,2.206444 0.50918,2.319594 0.16973,-0.792056 0.11315,-1.584113 0.73548,-2.149868 0.62233,-1.131509 1.81042,-1.866991 2.65905,-2.659047 0.39603,-0.50918 1.18808,-1.584114 1.98014,-2.149868 0.33945,-0.622331 0.2263,-1.584114 0.90521,-2.206444 0.50918,-0.509179 0.73548,-1.75384 -0.2263,-1.866991 -1.24466,-0.509179 -2.3196,-1.470962 -3.16823,-2.545896 -0.90521,-0.50918 -1.47096,-0.622331 -2.43275,-0.961784 -0.0566,0 -0.11315,0.50918 -0.33945,0.50918 -0.2263,0 0.0566,-0.678906 -0.4526,-0.678906 -0.11315,0.282877 -0.56576,0.735481 -0.96179,0.848632 -0.11315,-0.226302 -0.62233,-0.678906 -0.56575,-1.018358 0,-0.735482 -0.96178,-0.735482 -0.62233,-1.470963 -0.2263,-0.62233 -1.07493,0.905208 -1.47096,-0.113151 -0.22631,-0.905208 -0.22631,-2.489321 -1.07494,-2.659047 -0.2263,-0.169727 -0.90521,-0.452604 -1.41438,-0.452604 z m 5.20494,2.602472 c 0.0566,0 0.4526,-0.113151 0.84863,-0.05658 0.39603,0 1.01836,0.339453 1.13151,0.226302 -0.16972,-0.62233 -1.47096,-0.509179 -1.47096,-0.509179 -0.11315,0.113151 -0.62233,0.282877 -0.50918,0.339453 z m 4.24316,1.131509 c -0.0566,0.05658 -0.16973,0.05658 -0.16973,-0.05657 0.0566,-0.113151 0.16973,0 0.16973,0.05657 z m -0.79206,-0.226302 c -0.73548,0 -0.2263,-0.396028 -0.62233,-0.396028 -0.28287,0 -0.16972,0.282878 -0.6789,0.226302 0.4526,0.226302 0.4526,0.169726 0.79205,0.339453 0.39603,0 0.67891,0 0.50918,-0.169727 z" />
<text
   xml:space="preserve"
   style="fill:#000000;-inkscape-font-specification:'PT Sans Narrow, Normal';font-family:'PT Sans Narrow';font-weight:normal;font-style:normal;font-stretch:normal;font-variant:normal;font-size:12px;font-variant-ligatures:normal;font-variant-caps:normal;font-variant-numeric:normal;font-variant-east-asian:normal"
   x="18.293282"
   y="46.627651"
   id="text1"><tspan
     sodipodi:role="line"
     id="tspan1" /></text><text
   xml:space="preserve"
   style="font-style:normal;font-variant:normal;font-weight:normal;font-stretch:normal;font-size:12px;font-family:'PT Sans Narrow';-inkscape-font-specification:'PT Sans Narrow, Normal';font-variant-ligatures:normal;font-variant-caps:normal;font-variant-numeric:normal;font-variant-east-asian:normal;fill:#000000"
   x="16.618004"
   y="46.379253"
   id="text2"><tspan
     sodipodi:role="line"
     id="tspan2"
     x="16.618004"
     y="46.379253" /></text><text
   xml:space="preserve"
   style="font-style:normal;font-variant:normal;font-weight:normal;font-stretch:normal;font-size:12px;font-family:'PT Sans Narrow';-inkscape-font-specification:'PT Sans Narrow, Normal';font-variant-ligatures:normal;font-variant-caps:normal;font-variant-numeric:normal;font-variant-east-asian:normal;fill:#000000"
   x="12.041683"
   y="41.129719"
   id="text3"><tspan
     sodipodi:role="line"
     x="12.041683"
     y="41.129719"
     id="tspan4">FLOSS Conference Day</tspan><tspan
     sodipodi:role="line"
     x="12.041683"
     y="56.129719"
     id="tspan5">LinuxCabal</tspan></text><path
   d="m 97.079435,52.580504 c -0.1527,0.0086 -0.2895,0.100707 -0.35859,0.241411 -0.0795,0.150704 -0.26878,0.172846 -0.35722,0.143561 -0.14509,-0.04999 -0.33233,-0.08499 -0.51405,0.04857 -0.18171,0.133562 -0.37725,0.03214 -0.34201,-0.212128 0.0338,-0.24284 0.11884,-0.460681 0.34478,-0.592814 0.49333,-0.292837 0.14993,-0.496394 0.42008,-0.792087 0.27223,-0.294265 0.21212,-0.383545 0.20244,-0.784945 -0.91617,-0.142846 -1.43576,-0.415684 -2.01476,-1.164917 -0.57969,-0.747803 -0.80494,-1.364189 -0.86436,-2.302693 -0.0608,-0.940647 -0.008,-1.549175 0.38485,-2.329119 0.39245,-0.777087 0.80702,-1.152061 1.52144,-1.541319 0.71512,-0.391401 1.4171,-0.483538 2.0652,-0.472109 0.64879,0.01071 1.08063,0.05928 1.44682,0.27641 0.36688,0.216412 0.701987,0.488535 0.914797,0.489249 0.165818,0.01071 0.329558,-0.03785 0.464998,-0.137132 0.0276,0.728518 -0.606648,0.791371 -1.173215,0.807084 -0.56655,0.015 -0.91478,-0.226413 -1.43714,-0.137132 -0.52096,0.09142 -1.37634,0.336404 -1.79298,1.085637 -0.41662,0.749946 -0.43113,1.014213 -0.39589,1.643453 0.0338,0.627098 0.55689,1.095637 0.85261,1.101351 0.29572,0.005 0.36136,-0.08357 0.62046,-0.257125 0.2584,-0.175702 1.57809,-1.864152 2.0272,-2.242697 0.451177,-0.379259 0.895447,-0.497107 1.374945,-0.503536 0.48021,-0.0057 0.60181,0.01072 0.99012,0.175702 0.38692,0.16356 0.6246,0.465681 0.9369,0.649954 0.15892,-0.09642 0.2591,-0.242126 0.40351,-0.353547 0.52511,-0.394258 0.79595,-0.501392 1.41848,-0.439254 0.35791,0.03714 0.80771,0.24784 1.07786,0.489965 0.47882,0.431398 0.87473,1.029213 1.19394,1.484895 0.24873,0.354974 0.54239,0.779229 0.96178,0.912077 0.45533,0.143562 0.79941,-0.465681 0.84984,-0.806371 0.0297,-0.192843 0.067,-0.361403 0.067,-0.572102 0,-0.212128 -0.0207,-0.467824 -0.0795,-0.689237 -0.0622,-0.21927 -0.15339,-0.427826 -0.27084,-0.62067 -0.17826,-0.297121 -0.46984,-0.607099 -0.77108,-0.765659 -0.16998,-0.08928 -0.57071,-0.252125 -0.82291,-0.257839 -0.30953,-0.0071 -0.54514,0.100707 -0.8305,0.120706 -0.34547,0.02428 -0.96455,0.104278 -1.23401,-0.171417 -0.17342,-0.175702 -0.19553,-0.29355 -0.22387,-0.522105 0.0753,0.06571 0.18242,0.107134 0.27707,0.116419 0.21626,0.01858 0.41801,-0.163559 0.59352,-0.269979 0.1451,-0.08785 0.34822,-0.242841 0.53754,-0.321406 0.48642,-0.203557 1.08339,-0.198558 1.59606,-0.142847 0.41111,0.04286 0.9452,0.231412 1.30586,0.44354 0.36344,0.211413 0.71236,0.569244 0.96731,0.905648 0.32198,0.424257 0.49816,0.788517 0.61424,1.31705 0.14925,0.674951 0.19139,1.689165 0.0104,2.356261 -0.14165,0.524248 -0.61286,1.329192 -1.01361,1.724163 -0.3959,0.390686 -0.8533,0.579245 -1.37219,0.682094 0.0207,0.106422 0.0228,0.207842 0.049,0.297122 0.0387,0.127133 0.11262,0.267838 0.26256,0.223555 0.0594,-0.01786 0.0919,-0.03356 0.16997,0.03785 0.0795,0.07142 0.0387,0.346405 -0.18379,0.471395 -0.11331,0.06143 -0.23078,0.07499 -0.4111,0.08 -0.22041,0.0086 -0.44151,-0.0029 -0.65847,-0.03286 -0.19553,-0.03356 -0.31161,-0.194986 -0.52856,-0.220699 -0.3351,-0.03928 -0.59075,-0.289264 -0.86021,-0.467109 -0.11194,-0.07428 -0.15063,-0.07428 -0.21488,-0.112849 0.0352,0.109992 0.0815,0.22427 0.10432,0.332119 0.0235,0.104279 0.0138,0.203557 0.0255,0.288552 0.0131,0.08499 0.0359,0.150702 0.0484,0.220698 0.0532,0.04857 0.0712,0.123562 0.16099,0.147846 0.0898,0.025 0.23078,-0.01285 0.32336,-0.02642 0.0933,-0.01286 0.15477,-0.06429 0.22662,-0.05 0.0726,0.01428 0.14096,0.06857 0.20176,0.118564 0.0608,0.04999 0.11331,0.05714 0.16168,0.181414 0.0484,0.127134 0.0933,0.383545 0.10087,0.554961 0.006,0.171416 -0.0124,0.324976 -0.0615,0.462824 -0.0484,0.134991 -0.0933,0.194986 -0.22593,0.330691 -0.13267,0.135704 -0.34962,0.332119 -0.56588,0.471395 0.04,0.06 0.0574,0.115706 0.11953,0.181415 0.0622,0.06714 0.19139,0.140704 0.24804,0.210699 0.0588,0.07 0.0884,0.119992 0.0884,0.197844 0.008,0.09356 -0.0145,0.187129 -0.0643,0.266409 -0.15409,0.213556 -0.33373,0.251411 -0.55483,0.351404 0.0373,0.238554 0.0677,0.408542 0.0138,0.647097 -0.0207,0.09785 -0.0705,0.317834 -0.18656,0.374973 -0.11676,0.05714 -0.33993,0.02928 -0.48226,0.05285 -0.14165,0.02214 -0.22041,0.045 -0.33097,0.06714 -0.0677,0.100706 -0.1672,0.212126 -0.20105,0.301406 -0.0338,0.09071 -0.0235,0.122848 0.004,0.213556 0.029,0.09214 0.12782,0.225698 0.15547,0.334977 0.0269,0.107134 0.0338,0.222126 0.008,0.33069 -0.0262,0.107135 -0.0808,0.204985 -0.15891,0.282837 -0.0891,0.09642 -0.26394,0.171417 -0.35169,0.247126 -0.0864,0.07928 -0.17411,0.08785 -0.14993,0.216413 0.0325,0.17713 0.28259,0.461395 0.46293,0.53139 0.12782,0.03929 0.26393,0.02785 0.38484,-0.02928 -0.01,0.149275 -0.13472,0.252838 -0.21764,0.352831 0.22248,-0.06713 0.43944,-0.192843 0.59006,-0.359974 -0.0463,0.14499 -0.20728,0.377831 -0.44565,0.582817 -0.23837,0.204985 -0.23699,0.163558 -0.35722,0.245696 0.21696,0.04357 0.41871,0.03214 0.5873,0.0015 -0.13611,0.07928 -0.28743,0.129991 -0.44289,0.147846 -0.19968,0.02214 -0.32336,0.0057 -0.50369,-0.03928 -0.18034,-0.045 -0.34478,-0.214985 -0.56242,-0.33212 0.0207,0.08499 0.0367,0.185702 0.12782,0.272124 0.094,0.08499 0.23146,0.129991 0.37932,0.202129 -0.18793,-0.02071 -0.38554,-0.02642 -0.56933,-0.06857 -0.13749,-0.03356 -0.22939,-0.06571 -0.33026,-0.117134 -0.0995,-0.05 -0.1762,-0.125706 -0.26532,-0.188558 0.0421,0.08357 0.0546,0.182844 0.12713,0.25141 0.0719,0.06999 0.19001,0.09642 0.28467,0.142133 -0.0988,-0.0029 -0.19416,0.02071 -0.29711,-0.0071 -0.11054,-0.02643 -0.21557,-0.07785 -0.30609,-0.149276 -0.11054,-0.08499 -0.21487,-0.178559 -0.30746,-0.282837 -0.0912,-0.103564 -0.20451,-0.237126 -0.23837,-0.330691 -0.0331,-0.09499 0.0207,-0.160703 0.0305,-0.241411 -0.0622,0.04357 -0.13888,0.06713 -0.18794,0.128563 -0.0484,0.06285 -0.0912,0.118562 -0.0698,0.227126 0.0207,0.107135 0.11884,0.241412 0.18724,0.361403 -0.20452,-0.172845 -0.31852,-0.239983 -0.36688,-0.446396 -0.0442,-0.194987 0.0719,-0.371403 0.16098,-0.517821 0.0442,-0.07428 0.11193,-0.142133 0.1527,-0.213556 -0.0933,-0.09214 -0.19692,-0.171417 -0.27638,-0.277838 -0.0781,-0.107135 -0.11192,-0.25141 -0.19138,-0.351403 -0.0808,-0.102136 -0.18932,-0.165703 -0.28329,-0.248554 0.0822,0.182844 0.21903,0.408542 0.24805,0.550675 0.0304,0.142133 -0.0331,0.229984 -0.0822,0.307121 -0.0484,0.07643 -0.12712,0.09499 -0.20174,0.140704 -0.076,0.04857 -0.19139,0.01143 -0.23631,0.08071 -0.0449,0.06928 -0.0574,0.175701 -0.0145,0.245696 l 0.17689,0.284266 c -0.0871,-0.05143 -0.16237,-0.119992 -0.22593,-0.2007 -0.0512,-0.06857 -0.12852,-0.134277 -0.1375,-0.225699 -0.011,-0.09356 -0.0159,-0.175701 0.0435,-0.259267 0.0581,-0.08357 0.21972,-0.111421 0.29157,-0.175702 0.0726,-0.06428 0.11193,-0.105707 0.10778,-0.188558 -0.004,-0.08357 -0.0822,-0.142133 -0.14992,-0.194986 -0.2066,-0.160702 -0.46984,-0.30712 -0.64534,-0.49925 -0.0753,-0.07499 -0.13196,-0.167131 -0.16513,-0.270695 -0.0207,-0.07499 7.6e-4,-0.134276 0.049,-0.22427 0.0498,-0.09356 0.21765,-0.217841 0.23907,-0.316406 0.02,-0.100706 -0.0657,-0.122848 -0.14164,-0.157846 -0.0767,-0.03499 -0.22249,0.01786 -0.29365,-0.04357 -0.0712,-0.06142 0.0207,-0.189987 -0.0594,-0.260695 -0.0802,-0.07071 -0.26324,-0.03214 -0.35859,-0.107136 -0.0836,-0.07285 -0.141647,-0.171416 -0.165827,-0.282123 -0.0318,-0.100706 -0.0366,-0.207842 -0.0145,-0.311406 0.0221,-0.08071 0.0884,-0.09499 0.129207,-0.136419 0.0408,-0.04071 0.0746,-0.07428 0.0207,-0.136419 -0.0512,-0.06285 -0.228007,0.0028 -0.328887,-0.07499 -0.10294,-0.08071 -0.0414,-0.272123 -0.11262,-0.352832 -0.0719,-0.07785 -0.1983,-0.04714 -0.2667,-0.07428 -0.067,-0.025 -0.0933,0.06428 -0.13403,-0.07785 -0.0422,-0.142133 -0.0436,-0.569246 -0.0988,-0.72852 -0.0552,-0.159274 -0.16445,-0.01143 -0.21488,-0.168559 -0.0518,-0.157847 -0.003,-0.409972 -0.0256,-0.648526 l -0.10364,-0.649954 c -0.35998,0.251411 -0.59904,0.330691 -0.98666,0.400686 -0.0324,0.980645 -0.1216,1.55846 0.20107,2.64624 0.32128,1.086352 0.97284,1.728449 1.8517,2.647668 -1.16077,-0.897078 -1.71283,-1.62774 -2.05967,-2.562673 -0.34616,-0.936364 -0.28053,-1.719165 -0.24598,-2.618386 z m 6.162435,-0.394972 c 0.0891,0.0043 0.19692,0.02785 0.25979,0.07 0.0629,0.04357 0.1299,0.07643 0.18656,0.134989 0.14233,0.150704 0.24873,0.330692 0.29572,0.537105 0.0304,0.132848 0.0346,0.301408 0.0442,0.456397 -0.0428,-0.142133 -0.0712,-0.291408 -0.13266,-0.419971 -0.096,-0.203557 -0.25979,-0.400685 -0.46431,-0.491393 -0.0456,-0.02214 -0.0974,-0.02928 -0.14786,-0.01929 0.0159,0.02928 0.0435,0.05428 0.0449,0.09499 0,0.04214 -0.008,0.124277 -0.0774,0.159273 -0.11055,0.05571 -0.23423,0.015 -0.3206,-0.06142 -0.0877,-0.08357 -0.11469,-0.214985 -0.0705,-0.327834 0.0546,-0.138562 0.2591,-0.138562 0.38208,-0.132848 z m -1.12,-0.194272 c 0.0117,-0.237125 0.0933,-0.434969 0.29918,-0.550675 0.1292,-0.07643 0.27084,-0.128561 0.41732,-0.15356 0.14303,-0.01857 0.49263,-0.0057 0.70337,0.09356 0.1603,0.07499 0.27015,0.193557 0.41249,0.281408 0.14164,0.08642 0.24252,0.143561 0.37725,0.241411 0.20728,0.150705 0.32819,0.31355 0.47121,0.4114 0.0698,0.04714 0.16583,0.04071 0.25841,0.07 -0.0719,0.02071 -0.16513,0.04571 -0.24182,0.02071 -0.10986,-0.04571 -0.21281,-0.108564 -0.30263,-0.188558 -0.1064,-0.09785 -0.2211,-0.184272 -0.34339,-0.256411 -0.0857,-0.05143 -0.22732,-0.112848 -0.32198,-0.175701 -0.0933,-0.06428 -0.25634,-0.202129 -0.34685,-0.249268 -0.14302,-0.06143 -0.29572,-0.09214 -0.44911,-0.08928 -0.17688,0.0057 -0.43253,0.03572 -0.56794,0.162845 -0.13612,0.128562 -0.18725,0.239983 -0.15685,0.404257 0.0505,-0.06 0.085,-0.13642 0.13473,-0.181416 0.10641,-0.09499 0.22732,-0.09928 0.35998,-0.08071 0.14855,0.01929 0.22248,0.107135 0.27154,0.252839 -0.0325,-0.02357 -0.0933,-0.07785 -0.14095,-0.09642 -0.0995,-0.03929 -0.21143,-0.02786 -0.30263,0.03071 -0.12368,0.06999 -0.0898,0.171416 -0.1064,0.282837 -0.009,0.05428 -0.0284,0.09499 -0.0421,0.142133 -0.0463,-0.01143 -0.0891,-0.035 -0.12437,-0.06999 7.7e-4,0.05428 -0.007,0.100707 0.004,0.159274 0.01,0.06 0.038,0.131419 0.0581,0.194986 -0.0871,-0.08928 -0.17688,-0.171416 -0.23147,-0.287122 -0.0594,-0.112135 -0.0905,-0.240697 -0.0891,-0.36926 z m 0.15132,-1.714163 c 0.0629,-0.09714 0.0822,-0.246411 0.12022,-0.36926 -0.0145,0.154989 0.0145,0.323548 -0.0574,0.43497 -0.0726,0.112848 -0.20176,0.09214 -0.30608,0.125705 0.0815,-0.06428 0.17826,-0.09356 0.24321,-0.191415 z m -1.5249,2.287694 c 0.0822,-0.06857 0.30264,-0.01429 0.46707,-0.0015 l -0.35513,0.09499 c -0.0117,0.04214 -0.007,0.08785 -0.0331,0.124277 -0.0276,0.03643 -0.0788,0.04857 -0.11815,0.07428 0.004,-0.110706 -0.0429,-0.223555 0.0393,-0.292121 z m 1.16284,-4.75109 c 0.0988,0.05357 0.22179,0.127134 0.31023,0.128562 0.0857,0.0029 0.10917,-0.05714 0.1603,-0.09356 0.0795,0.271409 0.17274,0.569245 0.30954,0.815656 0.0573,0.104279 0.094,0.05643 0.13819,0.159989 0.0435,0.103564 0.0622,0.31355 0.10364,0.447111 0.0407,0.133563 0.0947,0.22927 0.14303,0.344976 -0.12023,-0.178558 -0.27707,-0.404257 -0.34547,-0.552103 -0.0677,-0.147848 -0.0242,-0.160704 -0.0795,-0.300694 -0.0539,-0.141419 -0.16445,-0.359975 -0.24667,-0.539962 -0.0595,0.0079 -0.13127,0.01857 -0.17619,0.0043 -0.0449,-0.015 -0.0373,-0.065 -0.0774,-0.09571 -0.0407,-0.03214 -0.10917,-0.01929 -0.16582,-0.07142 -0.056,-0.04999 -0.0691,-0.154989 -0.0739,-0.247125 z m -0.52994,1.33919 c 0.0933,-0.0086 0.20659,0.01643 0.29365,0.01215 0.0871,-0.0043 0.14924,-0.02786 0.22455,-0.04285 -0.0145,-0.134991 -0.002,-0.383545 -0.12161,-0.474252 -0.0794,-0.05714 -0.39936,-0.01428 -0.48434,0.0043 -0.19277,0.04357 -0.41732,0.162132 -0.60319,0.235698 0.17827,-0.128562 0.33234,-0.247125 0.54654,-0.31355 0.12989,-0.03928 0.42906,-0.09213 0.56173,-0.05428 0.0615,0.01643 0.0726,0.04357 0.10985,0.09642 0.12644,0.18213 0.12644,0.339261 0.15822,0.552103 0.0324,0.05071 0.0664,0.08499 0.0933,0.138562 0.0263,0.06642 0.0428,0.135705 0.047,0.206414 -0.0331,-0.04928 -0.0124,-0.110706 -0.10296,-0.147133 -0.0933,-0.03785 -0.23284,-0.0036 -0.3572,0.01 0.0905,0.06857 0.13472,0.132848 0.13886,0.274267 0.004,0.166416 -0.13196,0.286407 -0.27498,0.297835 -0.19692,0.01572 -0.29987,-0.02928 -0.37933,-0.203557 -0.0352,-0.07643 -0.011,-0.168559 -0.0124,-0.243554 -0.23907,0.01714 -0.23493,0.0093 -0.40904,0.15856 0.096,0.143561 0.15477,0.224984 0.31161,0.311407 0.0864,0.04714 0.18656,0.09499 0.29365,0.114277 0.10848,0.01929 0.28673,0.03785 0.40143,0.01929 0.10019,-0.01286 0.19208,-0.05856 0.26186,-0.133562 0.085,-0.07999 0.0933,-0.1957 0.12575,-0.287836 -0.003,0.09071 -0.0186,0.179986 -0.0484,0.264981 -0.0967,0.192843 -0.26255,0.251411 -0.46154,0.251411 -0.19001,0 -0.42562,-0.045 -0.60319,-0.120706 -0.14165,-0.06071 -0.37656,-0.232127 -0.43183,-0.381401 -0.0387,-0.102136 -0.008,-0.227128 -0.0124,-0.340691 0.19692,-0.13499 0.24459,-0.102135 0.47606,-0.141419 0.0974,-0.01785 0.16513,-0.05428 0.25841,-0.06285 z m -1.1435,-0.913506 c 0.005,-0.08142 0.0145,-0.07928 0.0207,-0.119278 -0.17895,-0.04928 -0.24942,0.07071 -0.355138,0.293551 -0.0393,0.08214 0,0.132848 -0.0428,0.187844 -0.0407,0.05428 -0.10986,0.04642 -0.17757,0.09928 -0.0677,0.05286 -0.13542,0.153561 -0.199677,0.208557 -0.13058,0.111421 -0.30885,0.179273 -0.46085,0.255696 0.10364,-0.07928 0.30608,-0.199271 0.37172,-0.313549 0.0345,-0.06142 0.029,-0.176416 0.0829,-0.232126 0.0538,-0.05357 0.0726,-0.09285 0.141627,-0.106422 0.0691,-0.01356 0.0421,-0.09714 0.0643,-0.163559 0.0222,-0.065 0.067,-0.112849 0.114,-0.179273 0.0469,-0.06642 0.10779,-0.164274 0.20106,-0.201414 0.0933,-0.035 0.239748,0.0036 0.310928,-0.01643 0.0705,-0.02071 0.0297,-0.07499 0.0815,-0.107135 0.0518,-0.03214 0.15132,-0.01643 0.2211,-0.05143 0.1216,-0.06 0.17964,-0.16213 0.25357,-0.269266 0.0104,0.232841 0.007,0.400686 -0.0739,0.62067 -0.0905,0.247125 -0.18379,0.392829 -0.44289,0.544962 -0.0884,0.05143 -0.17757,0.06999 -0.2522,0.09785 0.0428,-0.06142 0.10503,-0.08785 0.1299,-0.182844 0.0235,-0.09714 0.006,-0.285694 0.0117,-0.365688 z m 4.18637,1.137062 c -0.12229,0.01 -0.15131,-0.0086 -0.2508,0.065 l 0.16029,0.257125 c -0.004,-0.169273 0.0124,-0.203557 0.0919,-0.32212 z m -0.32128,-0.122849 c 0.16997,-0.07428 0.31852,-0.134991 0.50438,-0.147846 0.0739,-0.0057 0.18932,0.0064 0.26463,0.01143 0.065,-0.09785 0.14579,-0.174273 0.17688,-0.285694 0.0193,-0.07428 0.0104,-0.417114 -0.0263,-0.506393 -0.10088,-0.257838 -0.20038,-0.269266 -0.34201,-0.417827 -0.10088,-0.106422 -0.10503,-0.271409 -0.13612,-0.455682 -0.0104,-0.06713 -0.0428,-0.152132 -0.0581,-0.221412 -0.19554,-0.03286 -0.39383,-0.04428 -0.59213,-0.03214 0.10226,-0.102136 0.20106,-0.193558 0.23077,-0.347118 0.0311,-0.163561 0.003,-0.332834 -0.0781,-0.476395 -0.0836,-0.136419 -0.21765,-0.257124 -0.34132,-0.369259 -0.12299,-0.110706 -0.30125,-0.202843 -0.41733,-0.294265 0.15269,-0.05499 0.30678,-0.138561 0.45602,-0.167846 0.38761,-0.07714 0.72064,0.04071 1.09444,0.274268 0.21764,0.135704 0.3959,0.264267 0.62322,0.511391 0.22731,0.245697 0.50783,0.696379 0.72824,0.962789 0.21903,0.267838 0.39729,0.478537 0.58937,0.63781 0.1907,0.161418 0.36481,0.206416 0.54722,0.307836 l 0.28466,0.312836 0.23146,-0.29498 0.36966,0.04285 0.0767,-0.429255 0.33856,-0.09714 -0.0545,-0.579244 0.24459,-0.179987 -0.18448,-0.359975 0.18655,-0.394971 -0.24321,-0.449968 0.0933,-0.433541 -0.28121,-0.248553 -0.0367,-0.461396 -0.39314,-0.154989 -0.15684,-0.400687 -0.4422,-0.005 -0.21765,-0.297838 -0.29778,0.02143 -0.33096,-0.03786 -0.18655,-0.142132 -0.27362,0.1857 -0.32957,-0.17713 -0.65431,0.25641 0.42699,-0.383545 0.4422,-0.07285 0.33856,-0.08999 0.45808,0.155703 0.40213,-0.104993 0.389,0.236412 0.4118,-0.02214 0.20244,0.374973 0.40834,0.04786 0.2211,0.41497 0.25703,0.146418 0.0691,0.53282 0.23009,0.224984 -0.10227,0.466395 0.26947,0.352832 -0.25081,0.377831 0.26947,0.237125 -0.34478,0.316406 0.34962,0.37783 -0.42355,0.142848 0.27499,0.404256 -0.34616,0.06285 0.22663,0.444255 -0.38899,-0.0057 0.19691,0.332834 -0.42907,-0.05285 0.10226,0.479967 -0.32336,-0.293551 -0.10986,0.581387 -0.22248,-0.417827 -0.12091,0.521391 -0.2743,-0.383544 0.008,0.54639 -0.30333,-0.491394 c 0.0629,0.279266 0.0505,0.58353 0.22733,0.846368 0.5486,-0.07643 0.9065,-0.21927 1.32728,-0.637097 0.38139,-0.380687 0.83879,-1.174202 0.96316,-1.678452 0.14095,-0.572816 0.1451,-1.62917 0.006,-2.214842 -0.13405,-0.562103 -0.30816,-0.830655 -0.61908,-1.290623 -0.29711,-0.324976 -0.58937,-0.670665 -0.96662,-0.902793 -0.55482,-0.342831 -1.26372,-0.434253 -1.89455,-0.425683 -0.27153,7.89e-4 -0.53961,0.05285 -0.79318,0.153561 -0.36413,0.136418 -0.65639,0.436397 -1.02742,0.584244 -0.12092,0.04786 -0.21765,0.04857 -0.31369,-0.0029 0.0933,0.192843 0.19416,0.279265 0.42769,0.349261 0.16859,0.05071 0.57002,0.01857 0.84778,-0.0079 0.29709,-0.02786 0.45186,-0.119277 0.85606,-0.114276 0.39384,0.0071 0.70752,0.160703 0.87887,0.262837 0.35307,0.208557 0.60595,0.438541 0.82636,0.806372 0.12091,0.201414 0.2059,0.429254 0.26463,0.660667 0.0594,0.231412 0.0857,0.491393 0.0898,0.718519 0.004,0.227128 -0.0131,0.42997 -0.067,0.634241 -0.12575,0.477823 -0.40282,0.964217 -0.97215,0.889223 -0.34823,-0.045 -0.87265,-0.721377 -1.04883,-0.969217 -0.35584,-0.500679 -0.72065,-1.054925 -1.16631,-1.47061 -0.28121,-0.26141 -0.63565,-0.424255 -1.01083,-0.464252 -0.68541,-0.06428 -0.88923,0.06999 -1.40467,0.510677 0.10432,0.03356 0.20659,0.05285 0.31437,0.103565 0.23907,0.11142 0.45741,0.254982 0.6481,0.439254 0.20037,0.192844 0.29019,0.315692 0.2971,0.5921 0.005,0.184987 -0.14095,0.33212 -0.27568,0.463539 -0.0815,0.08142 -0.19001,0.155703 -0.25703,0.21927 -0.0877,0.08357 -0.19691,0.175702 -0.0857,0.30855 0.0414,0.04999 0.11399,0.08785 0.17411,0.13499 0.0974,0.07357 0.0519,0.348547 -0.0746,0.422827 -0.15615,0.09714 -0.35445,0.07928 -0.49263,-0.04357 0.16997,-0.025 0.27775,-0.04857 0.27292,-0.192843 -0.002,-0.08214 -0.10295,-0.152132 -0.20521,-0.199271 -0.24183,-0.114279 -0.42423,-0.09642 -0.66537,-0.27641 -0.2439,-0.181415 -0.24805,-0.280694 -0.31438,-0.564246 -0.11746,0.01215 -0.22593,0.015 -0.38346,0.06928 -0.15615,0.05285 -0.33027,0.181416 -0.4726,0.213556 -0.35929,0.07928 -0.43045,0.05571 -0.62668,0.0043 -0.34616,-0.09428 -0.795268,0.06428 -1.243675,0.213556 -0.0739,0.02357 -0.37518,0 -0.57763,0.07285 -0.36481,0.149275 -0.70405,0.35426 -1.00668,0.609242 -0.38416,0.334976 -0.88855,1.334906 -1.17321,2.483395 -0.0311,0.349976 0.0657,0.584245 -0.14717,0.754946 -0.2128,0.171416 -0.20728,0.607815 -0.27983,0.730663 -0.0712,0.12142 -0.15546,0.06714 -0.31092,0.239983 -0.15407,0.171416 -0.23284,0.143561 -0.22939,0.467109 0.13473,-0.08928 0.32958,-0.194986 0.50092,-0.203557 0.15271,-0.0043 0.1534,0.202129 0.5424,-0.194985 0.20796,-0.213557 0.6087,-0.220699 0.88646,-0.31355 0.27775,-0.09285 0.7773,-0.287123 1.27892,-0.865652 0.50024,-0.57853 0.739987,-1.188487 0.837407,-2.068424 0.0138,0.153561 0.0414,0.330691 -0.0228,0.760659 -0.0657,0.431398 -0.204517,0.914221 0.0891,1.495608 l 0.1831,0.359975 c -0.10848,-0.153561 -0.32128,-0.404257 -0.38692,-0.582816 l -0.145787,-0.412827 c -0.33165,0.537818 -0.40765,0.633526 -0.86712,1.017784 -0.0179,0.238555 -0.0228,0.487108 0.0525,0.715663 0.0746,0.228555 -0.0443,0.491394 0.0138,0.642811 0.0567,0.149275 0.18863,0.06428 0.23215,0.216414 0.0435,0.152131 -0.0221,0.453539 0.0442,0.601386 0.0684,0.147846 0.23284,0.05856 0.31299,0.107134 0.0795,0.04714 0.1064,0.112849 0.14856,0.175703 0.0435,0.06285 -0.0159,0.212127 0.0712,0.260695 0.0871,0.04714 0.221097,0.0071 0.312987,0.05285 0.0898,0.04714 0.10296,0.159275 0.0822,0.257839 -0.0222,0.100707 -0.11885,0.146418 -0.16099,0.248554 -0.0428,0.08499 -0.038,0.18713 0.0138,0.26641 0.0512,0.09356 0.16306,0.143561 0.27637,0.192843 0.111928,0.04571 0.270148,0.01929 0.386228,0.08499 0.11677,0.06429 0.2211,0.194986 0.2819,0.28998 0.0615,0.09356 0.0781,0.160703 0.0753,0.259266 -0.01,0.109992 -0.0407,0.214985 -0.0947,0.309978 -0.0512,0.09642 -0.16306,0.213557 0.0138,0.396401 0.17549,0.181415 0.16996,0.103564 0.27153,0.223555 -0.0117,-0.206414 -0.0933,-0.372116 -0.0338,-0.527105 0.0608,-0.154989 0.24113,-0.182844 0.33441,-0.251411 0.096,-0.07142 0.15131,-0.165702 0.22525,-0.248554 0,0.105707 0.0104,0.220699 -0.002,0.299979 -0.0228,0.162131 -0.0705,0.308549 0.16375,0.333547 0.10572,0.01143 0.20659,-0.05856 0.31714,-0.100706 -0.0581,0.105706 -0.15891,0.192843 -0.1748,0.322119 -0.0193,0.139276 0.0124,0.282123 0.0898,0.399258 0.0857,0.128562 0.2356,0.223555 0.34478,0.297122 0.10916,0.07499 0.16858,0.08214 0.25219,0.124276 0.004,0.125705 -0.0207,0.259267 -0.006,0.379259 0.0131,0.119991 0.0505,0.22427 0.11677,0.323548 0.0677,0.100708 0.17411,0.156418 0.27499,0.228555 -0.0553,-0.134275 -0.16721,-0.260695 -0.16582,-0.400685 0.002,-0.13999 0.0414,-0.238555 0.17411,-0.36426 0.13196,-0.124276 0.4415,-0.231412 0.5873,-0.352832 0.10778,-0.07785 0.19276,-0.185701 0.24528,-0.311406 0.0518,-0.117135 0.038,-0.307121 0.0476,-0.411399 0.0477,0.146417 0.0546,0.192843 0.0712,0.347118 0.0145,0.154989 -0.0877,0.372116 -0.13058,0.485679 0.15753,-0.07499 0.28259,-0.209271 0.35237,-0.374973 0.0394,0.025 0.0193,0.08928 0.0338,0.214984 0.065,-0.06571 0.13749,-0.115706 0.20244,-0.178558 0.065,-0.06285 0.13473,-0.117135 0.1679,-0.204985 0.0318,-0.08642 0.0186,-0.179988 -0.005,-0.280695 -0.0242,-0.102136 -0.13335,-0.21927 -0.19277,-0.33069 -0.0581,-0.108564 0.011,-0.217843 0.007,-0.351404 -0.11746,-0.02071 -0.21695,-0.08357 -0.35375,-0.06285 -0.13475,0.02071 -0.2902,0.17713 -0.42908,0.179987 -0.1375,0 -0.21695,-0.134276 -0.33027,-0.169988 -0.114,-0.03786 -0.228,-0.03214 -0.34201,-0.04999 0.14441,-0.142133 0.70545,-0.2107 1.08891,-0.274981 0.3358,-0.05857 0.67574,-0.08928 1.01568,-0.09499 0.1527,-0.0043 0.34961,0.04857 0.45671,0.01785 0.10502,-0.03214 0.0822,-0.107135 0.11331,-0.188558 0.0891,-0.227126 0.0456,-0.431397 -0.003,-0.659953 -0.30678,-0.03785 -0.62736,-0.08214 -0.9369,-0.05856 -0.30263,0.02357 -0.66054,0.172845 -0.97353,0.182845 -0.27085,0.01 -0.67435,-0.05286 -0.9065,-0.200701 -0.28536,-0.178558 -0.50508,-0.563531 -0.58384,-0.689236 -0.12714,-0.2007 -0.28743,-0.5971 -0.38623,-0.777088 -0.0974,-0.181416 -0.11954,-0.231412 -0.20038,-0.30712 -0.0815,-0.07499 -0.19208,-0.08071 -0.2895,-0.121421 0.11124,0.01 0.23215,-0.025 0.33303,0.03357 0.1527,0.09071 0.32129,0.462824 0.41594,0.626384 0.10019,-0.347118 0.0767,-0.482823 0.36551,-0.679237 -0.23216,0.270695 -0.23906,0.47568 -0.29572,0.793515 0.19415,0.327833 0.46292,0.852082 0.8153,0.997071 0.12851,0.05286 0.34685,0.08499 0.48435,0.103565 0.42907,0.05428 0.84293,-0.08499 1.26302,-0.192844 0.30747,-0.07928 0.61977,-0.04714 0.99356,-0.025 0.12644,0.0086 0.42563,-0.07142 0.4885,-0.202129 0.0359,-0.07643 0.029,-0.165702 -0.0166,-0.235697 -0.0484,-0.07499 -0.17619,-0.112849 -0.24529,-0.181416 -0.0684,-0.06999 -0.10778,-0.150703 -0.16236,-0.224269 -0.24183,0.04857 -0.48642,0.07499 -0.73378,0.08214 0.1527,-0.06428 0.29918,-0.100706 0.45602,-0.164273 0.16375,-0.06999 0.3199,-0.156418 0.46707,-0.256411 0.12851,-0.08785 0.20936,-0.137847 0.30263,-0.238554 0.0926,-0.102136 0.21074,-0.206414 0.27914,-0.330691 0.0684,-0.124276 0.0788,-0.263553 0.0829,-0.417113 0.003,-0.153561 -0.004,-0.368545 -0.0608,-0.493536 -0.058,-0.122849 -0.16789,-0.160703 -0.25702,-0.188558 -0.0877,-0.02928 -0.14924,0.045 -0.24114,0.05428 -0.0926,0.01 -0.17826,0.06857 -0.3123,0.0043 -0.17135,-0.09214 -0.31852,-0.227126 -0.42631,-0.392115 -0.13542,-0.195701 -0.23146,-0.516392 -0.36895,-0.762803 -0.23699,-0.425684 -0.53271,-0.820655 -0.81462,-1.215627 -0.0242,-0.09642 -0.0581,-0.231412 -0.0705,-0.362832 -0.0214,-0.229984 -0.0242,-0.468537 0.0449,-0.692094 0.0519,-0.171416 0.1299,-0.352831 0.30264,-0.422827 0.0691,-0.03071 0.14647,-0.03643 0.21902,-0.01571 0.0622,0.02286 0.12368,0.09642 0.0981,0.179988 -0.0269,0.09214 -0.0877,0.09571 -0.12989,0.141419 -0.0629,0.065 -0.10571,0.146417 -0.12645,0.235697 0.0767,-0.0029 0.18103,-0.0079 0.2446,0.0093 0.0829,0.02143 0.15822,0.07856 0.20106,0.199272 -0.0988,-0.08999 -0.14717,-0.132134 -0.26947,-0.134277 -0.0573,-0.0015 -0.12574,0.01857 -0.18724,0.02928 -0.0235,0.07714 -0.0373,0.173559 -0.0698,0.234983 -0.0338,0.06 -0.0974,0.045 -0.1216,0.114992 -0.0228,0.09142 -0.0269,0.186415 -0.0138,0.279266 h 0.003 z m 0.85814,-0.106421 c 0.0387,0.015 0.0519,0.01929 0.10087,0.05714 0.0477,0.03714 0.11401,0.07428 0.15201,0.16356 0.0304,0.09214 0.0401,0.189986 0.0276,0.285693 -0.0331,-0.01072 -0.0781,-0.0036 -0.11263,-0.03356 -0.0346,-0.03072 -0.0545,-0.09999 -0.0988,-0.128563 -0.0449,-0.03071 -0.0808,-0.02428 -0.1299,-0.03071 0.0262,0.06857 0.0345,0.142133 0.0249,0.214985 -0.0249,0.144991 -0.10779,0.219271 -0.24321,0.235699 -0.0581,0.0086 -0.15131,-0.01143 -0.20176,-0.02071 0.0235,0.05357 0.0629,0.102135 0.0871,0.156416 0.11332,-0.01643 0.19691,-0.01428 0.25909,-0.04357 0.0608,-0.02928 0.12645,-0.09642 0.20452,-0.123563 0.0781,-0.02786 0.14787,-0.02786 0.23354,-0.04214 -0.0677,0.06 -0.11193,0.119277 -0.17895,0.180701 l 0.14786,0.444969 c 0.10502,0.06857 0.20313,0.104278 0.3351,0.187843 0.13197,0.08285 0.29019,0.233556 0.46293,0.314264 0.17204,0.08071 0.27361,0.12642 0.45394,0.160703 0.17895,0.03572 0.32267,0.187129 0.49886,0.211413 0.17618,0.02286 0.50783,0.02928 0.64395,0.015 0.15545,-0.015 0.35652,-0.09714 0.37448,-0.272837 -0.12989,0.03214 -0.32819,0.0036 -0.42768,-0.249268 -0.0442,-0.112135 -0.0235,-0.319263 -0.0912,-0.450682 -0.0684,-0.133562 -0.16306,-0.175702 -0.27637,-0.339262 -0.11332,-0.163559 -0.2978,-0.420684 -0.40075,-0.63924 -0.10363,-0.219984 -0.12989,-0.467109 -0.21625,-0.663524 -0.0884,-0.1957 -0.22041,-0.353546 -0.32405,-0.505678 -0.22387,-0.330691 -0.4042,-0.554962 -0.77385,-0.722092 -0.17826,-0.08 -0.38071,-0.102136 -0.56933,-0.152132 -0.0781,0.03572 -0.18517,0.07428 -0.20383,0.169273 -0.0145,0.107136 0.0145,0.217843 0.0829,0.300694 0.10985,0.117849 0.27291,0.244268 0.33648,0.430683 0.0421,0.119992 0.0526,0.521392 0.0173,0.630669 -0.0374,0.114279 -0.12299,0.18356 -0.19484,0.257839 z m 0.0359,0.950647 c -0.0338,0.03072 -0.0601,0.06214 -0.11539,0.08714 -0.0553,0.02571 -0.13059,0.03214 -0.20383,0.05071 0.10226,0.164988 0.21074,0.332833 0.30885,0.506392 0.0988,0.172845 0.18379,0.36426 0.27707,0.54639 -0.005,-0.104992 0.002,-0.215699 -0.0131,-0.312835 -0.0145,-0.09714 -0.0574,-0.181416 -0.10018,-0.329262 -0.0414,-0.147132 -0.0933,-0.34569 -0.15339,-0.548532 z m -2.76304,-3.633313 c -0.0145,0.161418 0.0131,0.41497 0.0442,0.575674 0.04,0.1907 0.0767,0.28855 0.22663,0.402828 0.2736,0.210699 0.44772,0.174987 0.65984,0.297122 0.10019,0.05785 0.22663,0.154987 0.26393,0.25641 0.0367,0.104278 -0.0249,0.214985 -0.10087,0.259267 0.13266,0.02071 0.2819,-0.13499 0.21972,-0.292836 -0.0311,-0.07785 -0.17619,-0.114278 -0.2211,-0.193558 -0.0407,-0.07286 -0.0484,-0.159989 -0.0228,-0.239268 0.0366,-0.144277 0.31368,-0.277124 0.41249,-0.389972 0.15062,-0.177131 0.20727,-0.323548 0.12229,-0.549961 -0.11884,-0.317835 -0.58176,-0.574245 -0.85814,-0.699237 -0.12644,-0.05714 -0.1983,-0.06 -0.29641,-0.09214 0.20175,0.124277 0.41525,0.221413 0.5182,0.493536 0.085,0.22927 0.0104,0.316406 0.0145,0.514963 0.002,0.09285 0.11884,0.139277 0.17135,0.196415 0.0443,0.05143 0.0415,0.08928 0.005,0.159275 -0.003,-0.05714 -0.0311,-0.109992 -0.0767,-0.142132 -0.0774,-0.05714 -0.16168,-0.045 -0.20314,-0.160704 -0.0622,-0.17713 0.0629,-0.345689 -0.0774,-0.544246 -0.10365,-0.148562 -0.2439,-0.314979 -0.43183,-0.319264 -0.085,-6.96e-4 -0.1686,0.01285 -0.24874,0.04143 l -0.12644,-0.157132 -0.004,-0.0021 c -0.25702,-0.242126 -0.43322,-0.442112 -0.7925,-0.608528 -0.36067,-0.167133 -0.53893,-0.192845 -0.9528,-0.182844 -0.41249,0.0093 -0.822208,0.045 -1.301025,0.471394 -0.47951,0.428541 -1.71421,2.06271 -2.01407,2.269124 -0.2978,0.206414 -0.36413,0.277837 -0.73792,0.277837 -0.3738,0 -0.95833,-0.547102 -0.98112,-1.230626 -0.0222,-0.682808 -0.0311,-0.926363 0.42768,-1.749161 0.46016,-0.822798 1.29136,-1.075639 1.90975,-1.160632 0.61838,-0.08642 0.98941,0.138562 1.44543,0.139275 0.456017,0.0015 0.907885,-0.07928 1.041925,-0.454968 -0.0657,0.04 -0.15269,0.08571 -0.398668,0.07214 -0.24528,-0.01356 -0.586597,-0.307836 -0.968687,-0.50425 -0.38348,-0.197129 -0.80839,-0.220699 -1.35562,-0.230698 -0.54583,-0.01071 -1.22778,0.03214 -1.90352,0.40997 -0.67574,0.374974 -1.13658,0.774947 -1.52904,1.514179 -0.39245,0.737804 -0.45048,1.339189 -0.38692,2.233412 0.0622,0.892794 0.32958,1.557746 0.84225,2.2127 0.51405,0.65281 1.02673,0.973502 1.9512,1.092065 l 0.19553,-0.88708 -0.34823,0.514964 0.01,-0.573531 -0.31438,0.403543 -0.13957,-0.547819 -0.25357,0.439254 -0.12645,-0.610669 -0.37034,0.308549 0.11747,-0.503536 -0.4885,0.05571 0.22387,-0.350689 -0.44496,0.0043 0.2591,-0.466395 -0.39383,-0.065 0.31368,-0.425684 -0.48227,-0.147133 0.39935,-0.3964 -0.3959,-0.333548 0.30954,-0.248553 -0.2902,-0.399258 0.30954,-0.371402 -0.11538,-0.489251 0.26187,-0.234983 0.0781,-0.561389 0.29434,-0.152846 0.25288,-0.436398 0.46776,-0.05143 0.23077,-0.394972 0.46984,0.025 0.44358,-0.248553 0.46016,0.109992 0.52235,-0.162845 0.38831,0.09285 0.50507,0.07714 0.4871,0.402829 -0.74689,-0.269268 -0.37587,0.185702 -0.31162,-0.194986 -0.21418,0.149275 -0.38002,0.04071 -0.33925,-0.02143 -0.24735,0.311407 -0.50577,0.005 -0.17964,0.420684 -0.44911,0.162845 -0.0421,0.484251 -0.32267,0.261411 0.10709,0.454967 -0.27775,0.474252 0.21419,0.41497 -0.21074,0.37783 0.27914,0.188559 -0.0622,0.609242 0.389,0.100707 0.0864,0.452111 0.42354,-0.045 0.26325,0.309978 0.32474,-0.329262 c 0.59282,-0.305693 0.83742,-0.477108 1.30034,-0.993501 0.52441,-0.587815 0.82635,-1.131348 1.525577,-1.533462 0.503688,-0.289264 0.912728,-0.393543 1.477908,-0.291408 0.52926,0.09428 0.70752,0.423542 1.09858,0.769232 0.0421,-0.07785 0.0484,-0.09928 0.11678,-0.155704 -0.0207,0.101421 -0.0546,0.204985 -0.0643,0.302122 z"
   id="path1"
   style="stroke-width:0.702486" /><g
   id="g5"
   transform="matrix(1.1057285,0,0,1.0576576,-105.21463,25.610285)"><path
     d="m 207.96207,29.447263 c -1.8e-4,-1.83e-4 -4.2e-4,-3.92e-4 -4.2e-4,-5.45e-4 -0.10722,-0.125596 -0.15839,-0.358434 -0.21335,-0.606496 -0.0548,-0.247879 -0.11614,-0.515192 -0.31238,-0.688451 -4.2e-4,-3.92e-4 -8.4e-4,-7.41e-4 -0.001,-0.0011 -0.0388,-0.03522 -0.0788,-0.0649 -0.11894,-0.08967 -0.0402,-0.02475 -0.0811,-0.04492 -0.12199,-0.06087 0.27277,-0.838974 0.16582,-1.674448 -0.10965,-2.429286 -0.33783,-0.926613 -0.92774,-1.733851 -1.37834,-2.286077 -0.50435,-0.659849 -0.99758,-1.286147 -0.98784,-2.211292 0.015,-1.411919 0.14972,-4.030232 -2.24598,-4.033716 -0.0974,-1.83e-4 -0.19905,0.0041 -0.30495,0.01281 -2.67713,0.223494 -1.96701,3.156971 -2.00678,4.139136 -0.049,0.718336 -0.18933,1.284496 -0.66575,1.986698 -0.5595,0.6901 -1.34758,1.807205 -1.72075,2.970146 -0.17608,0.548743 -0.25987,1.108102 -0.18262,1.637596 -0.0242,0.02255 -0.0472,0.04622 -0.0693,0.07042 -0.16423,0.182058 -0.28567,0.402418 -0.42091,0.550742 -0.12645,0.13092 -0.30635,0.18061 -0.50435,0.254113 -0.19799,0.07372 -0.41525,0.182241 -0.54713,0.444788 0,0 0,2.02e-4 -1.8e-4,2.02e-4 -1.8e-4,3.7e-4 -4.2e-4,9.15e-4 -6.2e-4,0.0013 -0.062,0.120088 -0.0821,0.249713 -0.0821,0.381168 0,0.121554 0.0173,0.24478 0.0348,0.363384 0.0364,0.246779 0.0733,0.480157 0.0244,0.638215 -0.15662,0.44424 -0.17678,0.751337 -0.0665,0.9743 0.11067,0.223311 0.33782,0.321767 0.59467,0.377503 0.51372,0.111105 1.20935,0.0836 1.75754,0.385018 l 0.0473,-0.09222 -0.0467,0.0924 c 0.58691,0.318283 1.18195,0.431241 1.6566,0.318833 0.34436,-0.08138 0.62366,-0.294062 0.76721,-0.621164 0.37123,-0.0018 0.77871,-0.165008 1.43137,-0.202208 0.44284,-0.03705 0.99597,0.163157 1.63219,0.126494 0.0167,0.0715 0.0406,0.140439 0.0735,0.205893 4.2e-4,5.23e-4 6.4e-4,0.0013 0.001,0.0018 0.24659,0.511525 0.7048,0.74547 1.19325,0.705501 0.48895,-0.03999 1.00886,-0.338999 1.42925,-0.857675 l -0.077,-0.0671 0.0777,0.06637 c 0.40059,-0.503825 1.06545,-0.712653 1.50651,-0.988399 0.22044,-0.137874 0.39916,-0.310565 0.41313,-0.561395 0.0138,-0.250629 -0.1282,-0.531509 -0.45453,-0.907177 z"
     id="path3"
     style="fill:#202020;fill-opacity:1;stroke-width:0.0180031"
     fill="#000000" /><path
     fill="#D6A312"
     d="m 208.21539,30.342524 c -0.009,0.154722 -0.11652,0.269696 -0.31608,0.394369 -0.39883,0.249529 -1.10576,0.466607 -1.55706,1.033684 -0.39212,0.483841 -0.87013,0.749504 -1.29101,0.783973 -0.42089,0.03446 -0.78401,-0.146675 -0.99826,-0.592381 l -4.2e-4,-9.15e-4 -4.2e-4,-0.0011 c -0.13296,-0.262179 -0.0777,-0.675617 0.0342,-1.111954 0.11194,-0.436171 0.27276,-0.88426 0.29433,-1.248193 v -0.0011 c 0.0227,-0.466404 0.0479,-0.873808 0.1234,-1.188241 0.0756,-0.314432 0.19463,-0.527109 0.40537,-0.646832 0.0102,-0.0055 0.0196,-0.01083 0.0293,-0.01577 0.0239,0.403905 0.21675,0.816076 0.55756,0.905162 0.37302,0.101951 0.9106,-0.229911 1.13758,-0.500708 0.0455,-0.0018 0.0897,-0.0042 0.13259,-0.0053 0.19922,-0.005 0.3661,0.007 0.53687,0.161708 l 4.2e-4,5.23e-4 4.2e-4,3.92e-4 c 0.13117,0.115319 0.19358,0.333133 0.24766,0.576979 0.0541,0.244047 0.0973,0.509692 0.25954,0.699084 l 1.7e-4,1.84e-4 1.7e-4,3.92e-4 c 0.31187,0.358801 0.4121,0.601179 0.40343,0.756103 z"
     id="path5"
     style="fill:#ffffff;fill-opacity:1;stroke-width:0.0180031" /><path
     d="m 200.63603,31.486214 -1.8e-4,0.0011 v 0.0013 c -0.036,0.490257 -0.30265,0.757204 -0.71206,0.854193 -0.40906,0.09698 -0.96398,3.92e-4 -1.518,-0.300132 -1.7e-4,0 -4.2e-4,-1.84e-4 -4.2e-4,-1.84e-4 -0.61307,-0.336792 -1.34228,-0.30324 -1.81021,-0.404628 -0.23388,-0.05061 -0.38662,-0.126877 -0.45662,-0.268413 -0.07,-0.141724 -0.0716,-0.388686 0.0773,-0.809824 l 6.4e-4,-0.0018 6.2e-4,-0.0018 c 0.0737,-0.235597 0.0191,-0.493375 -0.0165,-0.735388 -0.0358,-0.241811 -0.0532,-0.462004 0.0265,-0.615296 l 6.3e-4,-0.0015 c 0.102,-0.203877 0.25155,-0.276848 0.43718,-0.345784 0.18578,-0.06912 0.40587,-0.123377 0.57965,-0.304165 l 0.001,-9.15e-4 8.4e-4,-9.16e-4 c 0.16069,-0.175825 0.28143,-0.396385 0.42267,-0.552776 0.1192,-0.132003 0.23848,-0.219462 0.41826,-0.220744 0.003,2e-4 0.004,2e-4 0.006,0 0.0315,2e-4 0.0648,0.0029 0.10022,0.0086 0.23864,0.0374 0.44671,0.210459 0.64718,0.49244 l 0.57877,1.094003 1.8e-4,5.45e-4 4.2e-4,3.7e-4 c 0.15397,0.333501 0.47925,0.700368 0.75485,1.07457 0.2756,0.374037 0.48878,0.749705 0.46103,1.037186 z"
     id="path7-1"
     style="fill:#ffffff;fill-opacity:1;stroke-width:0.0180031"
     fill="#D6A312" /><path
     d="m 203.52246,21.287612 c -0.0465,-0.09442 -0.14142,-0.184259 -0.303,-0.253012 l -4.2e-4,-1.84e-4 -4.2e-4,-1.82e-4 c -0.33605,-0.149241 -0.4819,-0.159876 -0.66945,-0.286382 -0.30531,-0.20351 -0.55756,-0.274829 -0.76722,-0.273914 -0.10977,3.71e-4 -0.20789,0.02054 -0.29576,0.05207 -0.25544,0.09112 -0.42497,0.281246 -0.53122,0.385568 l -1.7e-4,1.84e-4 c 0,1.83e-4 -1.8e-4,1.83e-4 -1.8e-4,3.7e-4 -0.0209,0.02054 -0.0478,0.03923 -0.11283,0.08874 -0.0656,0.04968 -0.16388,0.124487 -0.30529,0.234494 -0.12569,0.09772 -0.16653,0.224962 -0.12302,0.374019 0.0433,0.149058 0.1819,0.321032 0.4354,0.469724 l 4.2e-4,3.69e-4 4.2e-4,1.84e-4 c 0.15734,0.09589 0.26482,0.225144 0.38821,0.327999 0.0618,0.05133 0.12658,0.09717 0.20471,0.131831 0.0782,0.03465 0.16935,0.05812 0.28356,0.06508 0.26799,0.01613 0.46527,-0.06729 0.6394,-0.170692 0.17448,-0.103219 0.32225,-0.229544 0.49179,-0.286563 l 4.2e-4,-1.84e-4 4.2e-4,-1.83e-4 c 0.34754,-0.112572 0.5954,-0.339367 0.67298,-0.554794 0.0388,-0.107803 0.0377,-0.210111 -0.009,-0.304532 z"
     id="path9-5"
     style="fill:#ffffff;fill-opacity:1;stroke-width:0.0180031"
     fill="#D6A312" /><path
     d="m 202.64069,21.819672 c -0.2765,0.149474 -0.59946,0.330749 -0.94311,0.330749 -0.34348,0 -0.61483,-0.164642 -0.81,-0.325066 -0.0975,-0.08012 -0.17677,-0.159875 -0.23652,-0.21781 -0.10366,-0.08487 -0.0913,-0.203907 -0.0487,-0.200394 0.0714,0.0092 0.0821,0.106733 0.12709,0.150342 0.0609,0.05903 0.13701,0.13549 0.22928,0.211393 0.18456,0.151624 0.43064,0.299215 0.73876,0.299215 0.30759,0 0.66666,-0.187287 0.88583,-0.3148 0.12416,-0.07224 0.28219,-0.201733 0.41113,-0.299901 0.0987,-0.07511 0.0951,-0.165542 0.17652,-0.155696 0.0815,0.0099 0.0211,0.100102 -0.0928,0.203354 -0.1141,0.103258 -0.29253,0.240252 -0.43749,0.318614 z"
     id="path11"
     inkscape:connector-curvature="0"
     style="fill:#202020;fill-opacity:1;stroke-width:0.0180031"
     sodipodi:nodetypes="sscccccssszzs" /><path
     d="m 206.87453,27.938906 c -0.0383,-0.0015 -0.0762,-0.0013 -0.11296,-3.7e-4 -0.004,1.82e-4 -0.006,1.82e-4 -0.0102,1.82e-4 0.0949,-0.310948 -0.11512,-0.54031 -0.67477,-0.802855 -0.58036,-0.264729 -1.04281,-0.23853 -1.12094,0.298664 -0.005,0.02806 -0.009,0.05684 -0.0115,0.08581 -0.0436,0.01577 -0.087,0.03557 -0.13082,0.06031 -0.27242,0.154741 -0.42127,0.435254 -0.50399,0.77959 -0.0825,0.343949 -0.10646,0.759588 -0.12905,1.226927 0,1.83e-4 0,1.83e-4 0,3.71e-4 -0.014,0.23488 -0.10736,0.552777 -0.20172,0.889412 -0.95071,0.703465 -2.27017,1.008181 -3.3906,0.215041 -0.0759,-0.124486 -0.16298,-0.247879 -0.25261,-0.369617 -0.0573,-0.07773 -0.11614,-0.154924 -0.17449,-0.231177 0.11487,1.83e-4 0.21267,-0.01944 0.29169,-0.05647 0.0983,-0.04638 0.16724,-0.120457 0.20153,-0.215812 0.0683,-0.190493 -4.2e-4,-0.459273 -0.21903,-0.766372 -0.21868,-0.306914 -0.58902,-0.653248 -1.13315,-0.999398 0,0 0,0 0,-1.83e-4 -0.39987,-0.257963 -0.62332,-0.574063 -0.72797,-0.917262 -0.10481,-0.343401 -0.0902,-0.714668 -0.009,-1.08117 0.15485,-0.703484 0.55261,-1.387718 0.80646,-1.817106 0.0683,-0.05207 0.0245,0.0968 -0.25703,0.638765 -0.25209,0.49541 -0.72356,1.638713 -0.0782,2.531243 0.0173,-0.635117 0.16352,-1.282865 0.40907,-1.888812 0.35762,-0.840625 1.10556,-2.298745 1.16495,-3.46077 0.0308,0.0231 0.13596,0.0968 0.18279,0.124487 1.8e-4,1.83e-4 1.8e-4,1.83e-4 4.2e-4,1.83e-4 0.13719,0.08379 0.24025,0.20626 0.37372,0.31755 0.13381,0.111475 0.30088,0.207726 0.55331,0.222944 0.0242,0.0015 0.0479,0.0022 0.0711,0.0022 0.26021,0 0.46315,-0.088 0.63216,-0.188292 0.18368,-0.108899 0.33039,-0.229544 0.46953,-0.27648 1.8e-4,-1.84e-4 4.2e-4,-1.84e-4 4.2e-4,-1.84e-4 0.29399,-0.09533 0.52751,-0.264013 0.66043,-0.460556 0.22839,0.933579 0.75944,2.282062 1.10081,2.940078 0.18156,0.349084 0.54252,1.090887 0.69846,1.984681 0.0988,-0.0032 0.20771,0.01176 0.32421,0.04271 0.40783,-1.096571 -0.34578,-2.277479 -0.6905,-2.606395 -0.13912,-0.140074 -0.14584,-0.202777 -0.0767,-0.199843 0.37371,0.343034 0.86461,1.032584 1.04317,1.811055 0.0815,0.354933 0.0988,0.728236 0.0115,1.096571 0.0427,0.01834 0.0861,0.03832 0.1301,0.05997 0.65462,0.330548 0.89663,0.618029 0.7803,1.010382 z"
     id="path13"
     fill="#ffffff"
     style="stroke-width:0.0180031" /><path
     d="m 203.55321,20.212126 c 0.001,0.184992 -0.0293,0.342484 -0.097,0.503275 -0.0386,0.09167 -0.0829,0.168675 -0.1361,0.235411 -0.0181,-0.009 -0.0368,-0.0176 -0.0563,-0.02585 -0.0674,-0.02988 -0.12696,-0.05445 -0.18029,-0.07536 -0.0534,-0.0209 -0.0951,-0.03518 -0.13806,-0.05058 0.0312,-0.03905 0.0925,-0.08507 0.11525,-0.142823 0.0346,-0.08709 0.0516,-0.172159 0.0548,-0.273547 0,-0.0041 0.001,-0.0075 0.001,-0.01228 0.001,-0.09717 -0.0102,-0.180225 -0.0378,-0.265297 -0.0287,-0.08928 -0.0651,-0.153457 -0.1178,-0.206809 -0.0528,-0.05335 -0.10557,-0.07755 -0.16882,-0.07976 -0.003,-1.84e-4 -0.006,-1.84e-4 -0.009,-1.84e-4 -0.0593,1.84e-4 -0.11105,0.02145 -0.16442,0.06766 -0.056,0.04859 -0.0975,0.110736 -0.13222,0.197276 -0.0345,0.08654 -0.0514,0.172342 -0.0548,0.27428 -4.2e-4,0.0041 -4.2e-4,0.0075 -4.2e-4,0.01149 -0.001,0.0561 0.003,0.107433 0.0102,0.157308 -0.12161,-0.06289 -0.27723,-0.10874 -0.3847,-0.135326 -0.006,-0.04821 -0.0102,-0.09791 -0.0102,-0.149974 v -0.01412 c -10e-4,-0.184442 0.0272,-0.342666 0.0956,-0.503274 0.0684,-0.160792 0.15308,-0.276297 0.27221,-0.370352 0.11933,-0.09387 0.23656,-0.136957 0.37531,-0.138423 h 0.006 c 0.13576,0 0.2519,0.04144 0.37123,0.131091 0.12111,0.0913 0.20841,0.205343 0.27878,0.364851 0.0689,0.155474 0.10213,0.307466 0.10557,0.487691 -1e-5,0.0048 -1e-5,0.0088 0.001,0.01357 z"
     id="path15"
     inkscape:connector-curvature="0"
     style="fill:#ffffff;stroke-width:0.0180031"
     sodipodi:nodetypes="ccccccccccccccccccccccccscccc" /><path
     d="m 201.50118,20.396385 c -0.0178,0.0053 -0.0352,0.01096 -0.0523,0.01705 -0.0972,0.03483 -0.17442,0.07329 -0.24902,0.124433 0.008,-0.05354 0.009,-0.107803 0.003,-0.168491 -6.3e-4,-0.0033 -6.3e-4,-0.0061 -6.3e-4,-0.0094 -0.008,-0.08049 -0.0242,-0.147958 -0.0516,-0.216162 -0.0292,-0.07095 -0.0619,-0.121012 -0.10481,-0.159507 -0.0388,-0.03483 -0.0756,-0.05096 -0.11626,-0.05061 -0.004,0 -0.009,1.84e-4 -0.0127,5.46e-4 -0.0456,0.0041 -0.0834,0.02713 -0.11932,0.07241 -0.0357,0.0451 -0.0592,0.101211 -0.0762,0.175641 -0.0169,0.07425 -0.0214,0.147224 -0.0144,0.231012 0,0.0033 6.4e-4,0.0061 6.4e-4,0.0094 0.008,0.08123 0.0236,0.148691 0.0514,0.216894 0.0287,0.07022 0.0619,0.120273 0.10481,0.158775 0.008,0.0065 0.0143,0.01228 0.0214,0.01742 -0.0446,0.03576 -0.0745,0.06111 -0.1113,0.08898 -0.0236,0.01778 -0.0514,0.03905 -0.0839,0.06399 -0.0709,-0.06894 -0.12619,-0.155475 -0.17465,-0.269696 -0.0573,-0.13494 -0.0879,-0.270064 -0.097,-0.429572 v -0.0013 c -0.009,-0.159509 0.006,-0.296648 0.0488,-0.438555 0.0424,-0.141908 0.0989,-0.24458 0.1812,-0.328917 0.082,-0.08451 0.16475,-0.127049 0.26445,-0.132373 0.008,-3.71e-4 0.0154,-5.45e-4 0.0231,-5.45e-4 0.0903,1.83e-4 0.17095,0.03135 0.25438,0.100471 0.0906,0.07499 0.15893,0.170876 0.21621,0.306 0.0574,0.135123 0.088,0.270247 0.0965,0.429754 v 0.0013 c 0.004,0.06692 0.004,0.129994 -0.001,0.191042 z"
     id="path17"
     inkscape:connector-curvature="0"
     style="fill:#ffffff;stroke-width:0.0180031"
     sodipodi:nodetypes="cccccccccccccccccccccccccccccc" /><path
     sodipodi:nodetypes="aaaaaaa"
     inkscape:connector-curvature="0"
     id="path28396-7"
     d="m 201.95473,20.777915 c 0.0115,0.03807 0.0705,0.03176 0.1048,0.05001 0.0301,0.01602 0.0541,0.05113 0.0879,0.05214 0.0322,9.59e-4 0.0823,-0.01149 0.0865,-0.04466 0.005,-0.04374 -0.056,-0.07153 -0.0956,-0.08755 -0.0509,-0.02062 -0.11626,-0.03108 -0.16416,-0.0034 -0.0115,0.0063 -0.0229,0.02115 -0.0192,0.03356 z"
     style="fill:#202020;fill-opacity:1;stroke:none;stroke-width:0.0180031" /><path
     style="fill:#202020;fill-opacity:1;stroke:none;stroke-width:0.0180031"
     d="m 201.60535,20.777915 c -0.0115,0.03807 -0.0705,0.03176 -0.10481,0.05001 -0.03,0.01602 -0.0541,0.05113 -0.0879,0.05214 -0.0322,9.59e-4 -0.0823,-0.01149 -0.0865,-0.04466 -0.005,-0.04374 0.056,-0.07153 0.0956,-0.08755 0.0509,-0.02062 0.1164,-0.03108 0.16416,-0.0034 0.0115,0.0063 0.0229,0.02115 0.0192,0.03356 z"
     id="path5461"
     inkscape:connector-curvature="0"
     sodipodi:nodetypes="aaaaaaa" /></g></svg>
